<svg width="54" height="43" viewBox="0 0 54 43" fill="none" xmlns="http://www.w3.org/2000/svg">
<path d="M0 43V28.8657C0 23.4244 0.866667 18.3812 2.6 13.7361C4.46667 9.09105 7.6 4.51234 12 0L19.8 5.77314C16.3333 9.62191 13.9333 13.1389 12.6 16.3241C11.4 19.3765 10.8 22.6281 10.8 26.0787L6 22.6944H20.4V43H0ZM33.6 43V28.8657C33.6 23.4244 34.4667 18.3812 36.2 13.7361C38.0667 9.09105 41.2 4.51234 45.6 0L53.4 5.77314C49.9333 9.62191 47.5333 13.1389 46.2 16.3241C45 19.3765 44.4 22.6281 44.4 26.0787L39.6 22.6944H54V43H33.6Z" fill="#333333"/>
</svg>
