<svg width="59" height="12" viewBox="0 0 59 12" fill="none" xmlns="http://www.w3.org/2000/svg">
<path d="M1 5.25L0.25 5.25L0.25 6.75L1 6.75L1 5.25ZM58.5303 6.53033C58.8232 6.23744 58.8232 5.76256 58.5303 5.46967L53.7574 0.696697C53.4645 0.403804 52.9896 0.403804 52.6967 0.696698C52.4038 0.989591 52.4038 1.46446 52.6967 1.75736L56.9393 6L52.6967 10.2426C52.4038 10.5355 52.4038 11.0104 52.6967 11.3033C52.9896 11.5962 53.4645 11.5962 53.7574 11.3033L58.5303 6.53033ZM1 6.75L58 6.75L58 5.25L1 5.25L1 6.75Z" fill="#333333"/>
</svg>
