<svg width="59" height="12" viewBox="0 0 59 12" fill="none" xmlns="http://www.w3.org/2000/svg">
<path d="M58 5.25L58.75 5.25L58.75 6.75L58 6.75L58 5.25ZM0.469669 6.53033C0.176777 6.23744 0.176777 5.76256 0.469669 5.46967L5.24264 0.696697C5.53553 0.403804 6.01041 0.403804 6.3033 0.696698C6.5962 0.989591 6.5962 1.46446 6.3033 1.75736L2.06066 6L6.3033 10.2426C6.5962 10.5355 6.5962 11.0104 6.3033 11.3033C6.01041 11.5962 5.53553 11.5962 5.24264 11.3033L0.469669 6.53033ZM58 6.75L1 6.75L1 5.25L58 5.25L58 6.75Z" fill="#333333"/>
</svg>
