<svg width="67" height="20" viewBox="0 0 67 20" fill="none" xmlns="http://www.w3.org/2000/svg">
<g filter="url(#filter0_d_117_377)">
<path d="M62 7.25L62.75 7.25L62.75 8.75L62 8.75L62 7.25ZM4.46967 8.53033C4.17678 8.23744 4.17678 7.76256 4.46967 7.46967L9.24264 2.6967C9.53553 2.4038 10.0104 2.4038 10.3033 2.6967C10.5962 2.98959 10.5962 3.46446 10.3033 3.75736L6.06066 8L10.3033 12.2426C10.5962 12.5355 10.5962 13.0104 10.3033 13.3033C10.0104 13.5962 9.53553 13.5962 9.24264 13.3033L4.46967 8.53033ZM62 8.75L5 8.75L5 7.25L62 7.25L62 8.75Z" fill="white"/>
</g>
<defs>
<filter id="filter0_d_117_377" x="0.25" y="0.477051" width="66.5" height="19.0459" filterUnits="userSpaceOnUse" color-interpolation-filters="sRGB">
<feFlood flood-opacity="0" result="BackgroundImageFix"/>
<feColorMatrix in="SourceAlpha" type="matrix" values="0 0 0 0 0 0 0 0 0 0 0 0 0 0 0 0 0 0 127 0" result="hardAlpha"/>
<feOffset dy="2"/>
<feGaussianBlur stdDeviation="2"/>
<feComposite in2="hardAlpha" operator="out"/>
<feColorMatrix type="matrix" values="0 0 0 0 0 0 0 0 0 0 0 0 0 0 0 0 0 0 0.25 0"/>
<feBlend mode="normal" in2="BackgroundImageFix" result="effect1_dropShadow_117_377"/>
<feBlend mode="normal" in="SourceGraphic" in2="effect1_dropShadow_117_377" result="shape"/>
</filter>
</defs>
</svg>
